<?xml version="1.0" encoding="utf-8"?>
<!-- Generator: Adobe Illustrator 27.0.1, SVG Export Plug-In . SVG Version: 6.00 Build 0)  -->
<svg version="1.1" id="Layer_1" xmlns="http://www.w3.org/2000/svg" xmlns:xlink="http://www.w3.org/1999/xlink" x="0px" y="0px"
	 viewBox="0 0 25 25" style="enable-background:new 0 0 25 25;" xml:space="preserve">
<style type="text/css">
	.st0{fill:#FFFFFF;}
	.st1{fill:#D77D54;}
</style>
<path class="st1" d="M22.2,21.5h-1.3c-0.2,0-0.4,0.2-0.4,0.4v1.3c0,0.9,0.7,1.7,1.6,1.7s1.6-0.8,1.6-1.7
	C23.8,22.3,23,21.5,22.2,21.5"/>
<path class="st1" d="M21.7,4.7L21.7,4.7c-0.4-0.3-0.7-0.5-1-0.7l-6.1-3.4c-0.3-0.2-0.7-0.3-1.1-0.5c-1.1-0.3-2.2-0.3-3.2,0
	C9.9,0.3,9.5,0.5,9.2,0.7L3,4C2.7,4.2,2.4,4.4,2.2,4.6l0,0L2,4.7C0.7,5.8,0,7.5,0,9.2V19c0,3.2,2.6,5.9,5.8,5.9h10.8
	c0.9,0,1.6-0.8,1.6-1.7v-1.3c0-0.2-0.2-0.4-0.4-0.4h-12c-1.4,0-2.5-1.1-2.5-2.5V9.2c0-0.9,0.5-1.8,1.3-2.2l6.1-3.4h0.1l0,0
	c0.7-0.3,1.4-0.3,2,0l0,0l0.1,0.1L19.2,7c0.8,0.4,1.3,1.3,1.3,2.2v8.5c0,0.9,0.7,1.7,1.6,1.7s1.6-0.8,1.6-1.7V9.2
	C23.8,7.5,23,5.9,21.7,4.7"/>
</svg>
